<svg version="1.0" xmlns="http://www.w3.org/2000/svg"
 width="500.000000pt" height="500.000000pt" viewBox="0 0 500.000000 500.000000"
 preserveAspectRatio="xMidYMid meet"
 fill="none"
 >

<g transform="translate(0.000000,500.000000) scale(0.100000,-0.100000)"
fill="none" stroke="none">
<path d="M0 2500 l0 -2500 2500 0 2500 0 0 2500 0 2500 -2500 0 -2500 0 0
-2500z m3680 1380 l0 -300 -805 0 -805 0 0 -400 0 -400 740 0 740 0 0 -300 0
-300 -740 0 -740 0 2 -462 3 -463 848 -3 847 -2 0 -295 0 -295 -1200 0 -1200
0 0 1760 0 1760 1155 0 1155 0 0 -300z"/>
</g>
    <style>
        path { fill: #000; }
        @media (prefers-color-scheme: dark) {
            path { fill: #FFF; }
        }
    </style>
</svg>
